<?xml version="1.0" encoding="UTF-8"?>
<svg id="Camada_2" data-name="Camada 2" xmlns="http://www.w3.org/2000/svg" viewBox="0 0 1622.87 396.7">
  <defs>
    <style>
      .cls-1 {
        fill: #54ed92;
      }

      .cls-2 {
        fill: #fff9cf;
      }
    </style>
  </defs>
  <g id="VII_SEDRES" data-name="VII SEDRES">
    <g id="V1">
      <g id="Simbolo">
        <g id="Rios">
          <g id="_2" data-name="2">
            <g>
              <path class="cls-1" d="M316.23,233.36c-9.14-.68-24.75-3.15-22.67-17.16s12.64-23.7,21.69-31.85c29.08-26.41,66.39-38.64,98-59.01,4.49-2.9,11.06-8.11,16.19-12.15,4.49-3.57,9.93-8.01,11.82-14.3,1.2-3.86,0-13.58-5.69-11.12,11.13,13.37-46.79,42.64-55.32,47.47-12.17,6.93-24.56,13.4-36.64,20.55-4.84,2.9-9.67,5.72-14.42,8.83-2.12,1.39-18.46,12.94-22.13,17.26-.77,1-1.72,1.82-2.78,2.39-10.62,5.36-20.26,24.45-21.34,36.42-1.07,11.97,6.64,16.33,15.58,20.16,19.19,3.29,60.92-2.22,65.31,28.59,2.05,14.3-9.29,27.77-18.59,36.07-4.52,4-24.94,16.8-27.82,18.37-1.2.68-17.04,8.61-18.4,9.26-6.32,3.18-12.64,6.22-18.97,9.47-3.16,1.68-34.99,18.09-33.51,21.66,7.62-3.22,15.58-5.43,23.17-8.9,4.27-1.97,19.22-10.72,19.73-11.04,3.76-1.72,7.45-3.67,11.03-5.83,2.24-1.43,29.46-15.26,31.61-16.12,7.41-3.81,14.64-8.06,21.65-12.72,5.37-5.22,10.23-11.06,14.51-17.44,0,1.14,6.32-17.87,5.34-23.73-5.5-28.81-35.72-33.6-57.38-35.14Z"/>
              <path class="cls-1" d="M481.78,321.71c-.17-28.12-9.84-55.1-27.03-75.42-14.38-17.26-42.87-32.85-43.47-59.76-.44-20.52,12.64-39,24.15-52.9,6.86-8.22,14.38-15.58,21.75-23.2,3.79-3.93,11.63-10.19,12.64-15.98-4.62,4.47-9.14,8.22-13.94,12.08-3.16,2.54-6.13,5.36-9.04,8.22-.82.82-9.48,10.26-11.41,12.26-3.92,4.11-7.62,8.29-11.16,12.72-6.52,8.26-11.85,17.61-15.81,27.74-4.43,11.08-6.32,24.52-1.36,36.03s13.69,20.66,22.51,28.59c13.06,12.05,24.75,23.02,33,40,6.76,14.12,10.33,29.91,10.4,45.97.57,12.36-.76,24.73-3.95,36.57-2.05,6.76-4.71,13.62-6.48,20.62-1.62,6.99-2.28,14.23-1.96,21.45,3.24-4.03,5.84-8.64,7.71-13.65,1.42-3.57,9.29-34.74,10.65-34.6.77-3.4,1.26-6.87,1.45-10.37,1.3,2.25,1.07-3.15,1.14-4.75.28-3.86.25-7.76.19-11.62Z"/>
              <path class="cls-1" d="M430.73,284.43c-1.45,2.75,0,11.08,0,14.3-.56,9.1-3.02,17.92-7.18,25.74-3.88,6.78-8.45,13.03-13.59,18.62-4.05,4.88-7.18,10.65-9.2,16.94,23.71-11.8,41.76-47.32,33.54-76.28-1.11-3.9-2.85-.71-3.57.68Z"/>
              <path class="cls-1" d="M443.78,273.1c1.33,3.35,2.47,6.78,3.41,10.29-1.93-3.36,1.61,8.72,1.8,9.61,1.14,5.75,1.71,11.72,2.43,17.55,1.64,13.37-1.04,21.98-4.2,34.42-.6,2.36-2.28,9.4.92,10.72,4.14,1.86,6.77-7.72,7.4-9.87,3.13-10.2,4.1-21.08,2.85-31.78-1.89-14.78-6.9-28.83-14.6-40.96Z"/>
              <path class="cls-1" d="M414.89,280.54c-.41-7.15-2.81-17.87-7.43-23.05,2.31,16.08,1.93,31.63-7.56,44.86-1.83,2.54-12.99,15.41-8,18.98,4.99,3.57,11.51-7.15,13.12-10.44,4.81-9.61,10.56-18.62,9.86-30.35Z"/>
              <path class="cls-1" d="M392.57,254.95c.89-12.62-10.94-27.06-19.73-33.31-8.79-6.26-22.13-7.51-22.13-22.3-10.18,13.87,11.66,23.05,18.97,28.59,4.91,3.37,8.97,8.11,11.79,13.76,3.13,6.68,4.46,12.97,10.46,17.41.25-1.29.47-2.72.63-4.15Z"/>
              <path class="cls-1" d="M362.89,325.5c-6.32,5.58-13.06,12.76-19.98,17.87-4.58,3.25-9.93,6.54-14.51,9.65l-30.73,18.66c8.16.36,17.13-6.18,24.21-10.15,7.29-4,14.34-8.52,21.12-13.55,9.07-6.83,23.33-17.01,26.21-29.67-1.95,2.57-4.06,4.97-6.32,7.18Z"/>
              <path class="cls-1" d="M402.65,217.49c6.32,7.47,8.69,15.19,12.83,23.98,2.75,5.86,8.57,8.26,6.8-.71-.85-4.32-5.82-15.69-9.2-17.16s-7.78-9.9-11-12.83c-4.71-3.96-9.6-7.64-14.64-11.04.85,4.61,12.27,14.19,15.21,17.76Z"/>
              <path class="cls-1" d="M370.66,158.01c-2.4,1.86-21.31,16.8-17.07,22.09,2.4,2.97,17.17-15.91,18.97-17.69,5.82-5.47,17.96-11.33,21.59-19.16-1.96-2.11-21.18,12.9-23.49,14.76Z"/>
              <path class="cls-1" d="M321.63,197.08c-1.96,4.65-4.71,8.54-1.96,13.87,1.45,2.82,9.01,9.47,11.29,5.33s-5.69-5.68-7.11-8.58c-3.92-8.04,5.41-12.15,6.64-18.19-3.43,1.73-6.45,4.32-8.85,7.58Z"/>
            </g>
          </g>
          <g id="_1" data-name="1">
            <g>
              <path class="cls-1" d="M108.22,268.49c-.98,5.86,5.34,24.88,5.34,23.73,4.28,6.38,9.14,12.22,14.51,17.44,7.02,4.66,14.25,8.91,21.65,12.72,2.15.86,29.37,14.69,31.61,16.12,3.59,2.16,7.27,4.1,11.03,5.83.51.32,15.46,9.08,19.73,11.04,7.59,3.47,15.55,5.68,23.17,8.9,1.49-3.57-30.35-19.98-33.51-21.66-6.32-3.25-12.64-6.29-18.97-9.47-1.36-.64-17.2-8.58-18.4-9.26-2.88-1.57-23.3-14.37-27.82-18.37-9.29-8.29-20.64-21.77-18.59-36.07,4.39-30.81,46.12-25.31,65.31-28.59,8.95-3.82,16.66-8.19,15.58-20.16-1.07-11.97-10.72-31.06-21.34-36.42-1.06-.58-2.01-1.39-2.78-2.39-3.67-4.32-20.01-15.87-22.13-17.26-4.74-3.11-9.58-5.93-14.42-8.83-12.08-7.15-24.47-13.62-36.64-20.55-8.54-4.83-66.45-34.1-55.32-47.47-5.69-2.47-6.89,7.26-5.69,11.12,1.9,6.29,7.33,10.72,11.82,14.3,5.12,4.04,11.7,9.26,16.19,12.15,31.61,20.37,68.91,32.6,98,59.01,9.04,8.15,19.6,17.84,21.69,31.85,2.09,14.01-13.53,16.48-22.67,17.16-21.65,1.54-51.88,6.33-57.38,35.14Z"/>
              <path class="cls-1" d="M.23,333.33c.06,1.61-.16,7.01,1.14,4.75.19,3.5.68,6.97,1.45,10.37,1.36-.14,9.23,31.03,10.65,34.6,1.87,5.01,4.48,9.63,7.71,13.65.32-7.22-.34-14.45-1.96-21.45-1.77-7.01-4.43-13.87-6.48-20.62-3.19-11.84-4.52-24.21-3.95-36.57.07-16.06,3.64-31.84,10.4-45.97,8.25-16.98,19.95-27.95,33-40,8.82-7.94,17.54-17.09,22.51-28.59s3.07-24.95-1.36-36.03c-3.95-10.12-9.29-19.48-15.81-27.74-3.54-4.43-7.24-8.61-11.16-12.72-1.93-2-10.59-11.44-11.41-12.26-2.91-2.86-5.88-5.68-9.04-8.22-4.81-3.86-9.33-7.61-13.94-12.08,1.01,5.79,8.85,12.05,12.64,15.98,7.37,7.61,14.89,14.98,21.75,23.2,11.51,13.9,24.59,32.38,24.15,52.9-.6,26.91-29.08,42.5-43.47,59.76C9.88,266.62.22,293.6.04,321.71c-.06,3.86-.09,7.76.19,11.62Z"/>
              <path class="cls-1" d="M47.52,283.75c-8.22,28.95,9.83,64.48,33.54,76.28-2.02-6.29-5.15-12.06-9.2-16.94-5.15-5.6-9.71-11.85-13.59-18.62-4.16-7.82-6.62-16.64-7.18-25.74,0-3.22,1.45-11.55,0-14.3-.73-1.39-2.47-4.58-3.57-.68Z"/>
              <path class="cls-1" d="M23.44,314.06c-1.26,10.7-.29,21.58,2.85,31.78.63,2.14,3.26,11.72,7.4,9.87,3.19-1.32,1.52-8.36.92-10.72-3.16-12.44-5.85-21.05-4.2-34.42.73-5.83,1.3-11.8,2.43-17.55.19-.89,3.73-12.97,1.8-9.61.94-3.51,2.08-6.95,3.41-10.29-7.71,12.13-12.72,26.18-14.6,40.96Z"/>
              <path class="cls-1" d="M76.8,310.88c1.61,3.29,8.12,14.01,13.12,10.44s-6.16-16.44-8-18.98c-9.48-13.23-9.86-28.77-7.56-44.86-4.62,5.18-7.02,15.91-7.43,23.05-.7,11.72,5.06,20.73,9.86,30.35Z"/>
              <path class="cls-1" d="M89.88,259.09c6.01-4.43,7.33-10.72,10.46-17.41,2.82-5.65,6.88-10.39,11.79-13.76,7.3-5.54,29.15-14.73,18.97-28.59,0,14.8-13.34,16.05-22.13,22.3-8.79,6.26-20.61,20.7-19.73,33.31.16,1.43.38,2.86.63,4.15Z"/>
              <path class="cls-1" d="M112.61,318.32c2.88,12.65,17.13,22.84,26.21,29.67,6.77,5.03,13.83,9.55,21.12,13.55,7.08,3.97,16.06,10.51,24.21,10.15l-30.73-18.66c-4.58-3.11-9.93-6.4-14.51-9.65-6.92-5.11-13.66-12.3-19.98-17.87-2.26-2.22-4.37-4.62-6.32-7.18Z"/>
              <path class="cls-1" d="M94.37,199.72c-5.04,3.4-9.92,7.09-14.64,11.04-3.22,2.93-7.62,11.37-11,12.83s-8.35,12.83-9.2,17.16c-1.77,8.97,4.05,6.58,6.8.71,4.14-8.79,6.51-16.51,12.83-23.98,2.94-3.57,14.35-13.15,15.21-17.76Z"/>
              <path class="cls-1" d="M87.67,143.25c3.64,7.83,15.77,13.69,21.59,19.16,1.8,1.79,16.56,20.66,18.97,17.69,4.24-5.29-14.67-20.23-17.07-22.09-2.31-1.86-21.53-16.87-23.49-14.76Z"/>
              <path class="cls-1" d="M151.34,189.5c1.23,6.04,10.56,10.15,6.64,18.19-1.42,2.9-9.39,4.43-7.11,8.58,2.28,4.15,9.83-2.5,11.29-5.33,2.75-5.33,0-9.22-1.96-13.87-2.4-3.26-5.43-5.85-8.85-7.58Z"/>
            </g>
          </g>
        </g>
        <g id="Arvore">
          <path class="cls-2" d="M251.1,226.01c0,.38,0,.53.33-.75-.18,1-.33,1-.33.75Z"/>
          <path class="cls-2" d="M249.67,250.91c.85-9.73-.73-22.52,2.88-31.63-.68,0-.98-.4-.9-1.2-6.18,3.98-3.95,25.02-4.2,31.05-1.07-2.18-1.75-4.54-2-6.96.7,1.58,1.9,1.7,0-3.1.03-.11.07-.22.13-.33l-.13.3c-.33-.8-.7-1.7-1.23-2.78-2.5,12.26-.95,25.02-2.75,37.54-1.53,10.51-10.23,23.12-10.01,33.21.15,7.68,5.76,18.77,15.61,15.01,16.94-6.23,0-15.39-1.73-23.35-2.98-13.46,3.13-33.83,4.33-47.77ZM247.92,252.76h0v-.15c0-.15-.03.1,0,.15ZM247.72,252.61v.33c0,.1-.08-.28,0-.33Z"/>
          <path class="cls-2" d="M229.93,213.97c-.58,9.61,6.33,32.53,10.99,42.87-2.18-7.76-6.36-38.69-10.99-42.87Z"/>
          <path class="cls-2" d="M221.99,188.05c.78,3.38,5,25.45,8.03,25.95.4-3.48-4.85-24.62-8.03-25.95Z"/>
          <path class="cls-2" d="M216.21,169.48c-1.7,2.68,6.58,17.27,3.55,11.06-1.33-1.58-1.23-8.48-3.55-11.06Z"/>
          <path id="Sol" class="cls-2" d="M249.35,68.34c1.16,1.36,2.13,2.91,3.29,4.46,2.52,2.91,2.71,6.2.39,9.11-2.33,3.1-5.23,5.81-8.14,8.53-.97.78-2.71,1.16-4.07,1.16-10.66-.19-19.38-6.2-20.93-17.24-.39-3.1.39-6.78,2.13-9.49,2.91-5.04,6.98-9.11,13.18-10.66,3.68-.97,7.17-2.13,11.04-2.13,10.08-.39,19.38,5.62,22.86,14.92,2.52,6.78,3.1,13.95.97,20.93-1.16,3.88-3.49,7.94-6.2,10.85-2.33,2.52-6.2,3.49-9.3,5.43-1.36.78-3.1,1.74-4.07,3.1-2.71,3.68-6.59,4.46-10.85,4.46-2.13,0-4.46-.19-6.59-.19-15.11-.58-27.9-6.39-35.85-19.18-7.36-12.01-9.69-25.38-2.33-38.56,3.29-5.62,8.14-10.27,12.4-15.31.97-1.16,2.52-1.74,4.07-2.33,8.53-3.1,17.24-5.04,26.16-5.62,6.98-.39,13.76-.58,20.73.78,8.53,1.55,15.69,5.04,21.7,11.43,6.78,7.17,12.21,15.11,15.69,24.41,4.26,12.01,2.91,23.64-3.49,34.49-5.23,8.72-11.43,16.86-18.6,24.22-4.07,4.07-9.11,7.17-13.76,10.66-1.16.97-2.91,1.55-3.88,2.52-6.01,6.01-13.37,6.39-21.12,5.62-5.81-.78-11.63-1.94-17.63-2.91-2.91-.58-5.81-1.16-8.14-3.49-1.16-1.16-2.91-1.74-4.65-2.33-10.85-4.65-19.38-12.59-28.48-19.76-.19-.19-.39-.39-.58-.78-5.23-6.78-10.66-13.76-13.56-21.9-2.91-8.14-3.88-16.47-2.33-25,2.13-11.24,6.2-21.9,11.43-31.78,2.91-5.43,7.36-10.27,11.82-14.53,5.23-4.84,11.24-9.3,17.44-12.79,4.46-2.52,9.88-3.68,15.11-5.04C230.75-.06,246.44-.64,262.14.52c4.07.39,8.33,1.55,12.21,3.29,6.39,2.71,12.4,6.01,18.41,9.3,2.33,1.36,3.88,3.68,5.81,5.62,9.88,10.08,18.02,21.31,23.06,34.68,1.94,5.23,4.46,10.46,5.62,16.08,1.55,7.75.39,15.69-2.52,23.06-2.13,5.62-3.68,11.24-6.01,16.86-1.16,2.91-3.1,5.81-4.84,8.53-1.36,2.33-3.29,4.26-4.65,6.39-3.88,5.81-7.17,11.82-11.24,17.24-7.36,9.69-16.47,17.24-28.87,19.76-6.59,1.36-13.18,2.91-19.76,3.49-7.94.78-15.69-.58-23.25-2.52-4.07-.97-8.33-1.94-12.4-3.1-2.33-.58-4.46-1.55-6.59-2.33-1.36-.39-2.71-.97-4.07-1.16-11.43-2.52-22.28-6.59-31.78-13.56-5.04-3.68-10.66-6.78-14.53-11.82-3.88-4.84-3.88-7.94.58-13.37.78,1.16,1.74,2.13,2.33,3.29,2.91,5.23,6.78,9.3,12.21,12.21,1.16.58,2.33,1.55,3.49,2.33,6.01,4.65,12.59,8.33,19.38,11.43.97.39,1.94.97,3.1,1.16,9.11,1.94,18.02,4.07,27.13,5.81,4.84.97,9.69,1.16,14.53,2.13s9.69.58,14.53-.39c8.53-1.74,17.05-3.29,25-6.78s14.73-8.53,19.76-15.69c5.23-7.36,10.66-14.73,15.5-22.48,1.36-2.13,1.94-5.04,2.71-7.56.97-2.91,1.55-6.01,2.91-8.91,2.13-5.04,3.29-10.08,2.52-15.5,0-.39,0-.58-.19-.97-4.46-9.49-5.23-20.54-11.82-29.06-4.07-5.23-8.14-10.27-12.21-15.5-.97-1.16-1.74-2.33-2.52-3.49-1.94-2.71-4.26-4.84-7.56-6.39-5.81-2.71-11.63-5.62-17.24-8.53-4.46-2.33-9.11-2.91-14.14-3.29-9.69-.78-19.18-.58-28.68,1.16-7.75,1.36-15.5,2.91-22.86,5.81-5.62,2.33-10.46,6.78-15.69,10.27-5.43,3.49-8.91,8.14-12.79,12.4-1.55,1.74-2.52,3.88-3.68,6.01-3.88,6.78-7.36,13.56-8.72,21.31-.39,3.1-.19,6.2.19,9.3,1.55,10.27,7.36,18.6,13.37,26.74,7.36,9.88,17.05,16.47,28.1,21.51,12.79,5.81,26.16,7.94,39.92,8.33,3.88.19,6.98-1.16,9.88-3.49,3.49-2.71,7.17-5.23,10.66-7.75,10.08-7.17,17.24-16.86,23.64-27.13,3.88-6.2,4.84-13.18,2.33-20.35-3.88-10.46-10.27-19.18-17.63-27.13-3.1-3.29-7.17-4.46-11.43-5.43-16.47-3.68-32.94-2.13-48.83,3.1-4.65,1.55-8.72,4.84-12.79,7.75-2.91,2.13-3.49,5.62-3.68,8.91-.78,7.56,1.36,14.73,3.49,21.7.39,1.36,1.74,2.71,2.71,3.88,2.13,2.71,4.07,5.62,6.39,8.14,1.16,1.36,2.52,2.52,4.07,3.1,6.2,2.52,12.4,5.62,19.38,5.04,2.13-.19,4.46.19,6.59-.19,2.52-.39,5.23-.97,7.56-2.33,4.26-2.52,8.72-5.23,12.59-8.33,4.65-3.68,9.11-13.37,5.23-20.93-3.1-6.2-8.53-9.49-14.53-12.01-1.94-.78-3.88-1.36-5.81-1.94-.97-.19-1.94-.58-2.71-.58-5.81.58-11.04,2.33-15.31,6.39-3.1,2.91-3.29,8.53,1.36,13.56,2.52,2.71,5.81,5.62,10.08,5.81,1.74,0,3.68,0,5.43-.78,3.1-1.16,3.49-2.52,2.33-5.43-.39-.97-.97-1.94-1.55-2.91-1.74-3.88-.78-5.43,4.07-6.01Z"/>
        </g>
      </g>
      <g id="Logotipo">
        <g>
          <path class="cls-2" d="M552.93,286.93c0-2.58.94-4.67,2.83-6.27,1.88-1.59,4.55-2.39,8.01-2.39,2.74,0,4.92.49,6.53,1.46,1.61.98,2.9,2.48,3.88,4.51.4.82.14,1.42-.75,1.82l-2.18.95c-.45.19-.79.23-1.01.14-.22-.09-.46-.36-.69-.81-.55-1.11-1.28-1.94-2.18-2.49-.9-.55-2.1-.83-3.6-.83-3.82,0-5.73,1.21-5.73,3.64,0,.69.17,1.26.51,1.72.34.46.88.82,1.6,1.09.73.26,1.42.45,2.08.57.66.12,1.54.24,2.65.38,1.11.13,2.06.28,2.87.44.8.16,1.69.43,2.65.81.96.38,1.75.85,2.35,1.4.61.55,1.12,1.31,1.54,2.27.42.96.63,2.08.63,3.34,0,2.69-.99,4.84-2.97,6.45-1.98,1.61-4.75,2.41-8.31,2.41-2.98,0-5.33-.55-7.04-1.64-1.71-1.09-2.99-2.75-3.84-4.96-.18-.5-.21-.88-.08-1.13.13-.25.44-.46.91-.61l2.18-.79c.45-.16.79-.18,1.03-.06s.46.42.67.89c1.03,2.45,3.09,3.68,6.17,3.68,4.19,0,6.29-1.37,6.29-4.11,0-.87-.32-1.57-.95-2.1-.63-.53-1.34-.89-2.14-1.09s-1.85-.36-3.16-.49c-.9-.1-1.62-.19-2.16-.26-.54-.07-1.23-.19-2.08-.38-.84-.18-1.53-.4-2.06-.63s-1.11-.56-1.74-.97c-.63-.41-1.12-.88-1.46-1.4-.34-.53-.64-1.18-.89-1.96-.25-.78-.38-1.64-.38-2.59Z"/>
          <path class="cls-2" d="M577.81,294.4c0-2.77.78-4.88,2.35-6.35,1.57-1.46,3.84-2.2,6.82-2.2s5.28.77,6.82,2.29,2.31,3.49,2.31,5.89v2.41c0,1.13-.59,1.7-1.78,1.7h-11.94v1.46c0,1.29.39,2.27,1.17,2.95.78.67,1.89,1.01,3.34,1.01,2.21,0,3.77-.7,4.67-2.1.32-.45.61-.71.89-.77.28-.07.65.03,1.13.3l1.38.75c.9.42,1.05,1.08.47,1.98-1.56,2.53-4.4,3.8-8.54,3.8-3.08,0-5.37-.76-6.86-2.29-1.49-1.53-2.23-3.59-2.23-6.17v-4.67ZM591.54,293.77c0-1.29-.38-2.29-1.15-2.99-.77-.7-1.9-1.05-3.4-1.05s-2.61.35-3.4,1.05c-.79.7-1.19,1.69-1.19,2.99v.87h9.14v-.87Z"/>
          <path class="cls-2" d="M613.33,287.16c2.16-.87,4.48-1.31,6.96-1.31,5.17,0,7.75,2.62,7.75,7.87v11.98c0,.45-.09.77-.26.95-.17.18-.48.28-.93.28h-2.18c-.45,0-.77-.09-.95-.28-.18-.18-.28-.5-.28-.95v-11.83c0-2.56-1.28-3.84-3.84-3.84-1.19,0-2.47.24-3.84.71.29.77.44,1.75.44,2.97v11.98c0,.45-.09.77-.28.95-.18.18-.5.28-.95.28h-2.14c-.45,0-.77-.09-.95-.28-.18-.18-.28-.5-.28-.95v-11.83c0-2.56-1.29-3.84-3.88-3.84-1.13,0-2.19.16-3.16.47-.21.08-.32.24-.32.47v14.71c0,.45-.09.77-.26.95-.17.18-.48.28-.93.28h-2.18c-.45,0-.77-.09-.95-.28-.18-.18-.28-.5-.28-.95v-16.26c0-.63.1-1.1.32-1.4.21-.3.62-.59,1.23-.85,2.19-.9,4.59-1.34,7.2-1.34,2.08,0,3.72.44,4.9,1.31Z"/>
          <path class="cls-2" d="M634.89,278.78c.92,0,1.56.17,1.9.51.34.34.51.96.51,1.86v.36c0,.92-.17,1.56-.51,1.9s-.98.51-1.9.51h-.28c-.9,0-1.52-.17-1.88-.51-.36-.34-.53-.98-.53-1.9v-.36c0-.9.17-1.52.51-1.86s.98-.51,1.9-.51h.28ZM635.84,286.45c.45,0,.76.09.95.26.18.17.28.48.28.93v18.08c0,.45-.09.77-.28.95-.19.18-.5.28-.95.28h-2.18c-.45,0-.76-.09-.93-.28-.17-.18-.26-.5-.26-.95v-18.08c0-.45.09-.76.26-.93.17-.17.48-.26.93-.26h2.18Z"/>
          <path class="cls-2" d="M643.07,287.2c2.24-.9,4.84-1.34,7.79-1.34,2.77,0,4.83.69,6.19,2.06,1.36,1.37,2.04,3.34,2.04,5.89v11.91c0,.45-.09.77-.28.95-.18.18-.5.28-.95.28h-2.18c-.45,0-.76-.09-.93-.28-.17-.18-.26-.5-.26-.95v-11.79c0-2.58-1.44-3.88-4.31-3.88-1.27,0-2.53.17-3.8.51-.19.08-.28.21-.28.4v14.75c0,.45-.09.77-.26.95-.17.18-.48.28-.93.28h-2.18c-.45,0-.77-.09-.95-.28-.18-.18-.28-.5-.28-.95v-16.26c0-.63.1-1.1.3-1.4.2-.3.61-.59,1.25-.85Z"/>
          <path class="cls-2" d="M663.13,289.97c1.42-2.74,4.15-4.11,8.19-4.11,5.64,0,8.46,2.72,8.46,8.15v10.24c0,.69-.1,1.17-.3,1.46-.2.29-.57.55-1.13.79-1.58.69-3.96,1.03-7.12,1.03-3.35,0-5.66-.52-6.92-1.56-1.27-1.04-1.9-2.66-1.9-4.84,0-2.35.69-4,2.08-4.94s3.68-1.42,6.9-1.42c.29,0,1.56.07,3.8.2v-1.11c0-1.29-.3-2.27-.91-2.93-.61-.66-1.62-.99-3.05-.99-1.95,0-3.34.63-4.15,1.9-.29.42-.53.67-.73.73-.2.07-.52.02-.97-.14l-1.58-.67c-.87-.4-1.09-.99-.67-1.78ZM672.66,278.15c.95-.61,1.69-.59,2.21.04l1.03,1.27c.29.34.43.62.42.83-.01.21-.22.38-.61.51l-6.88,2.89c-.77.32-1.27.3-1.5-.04l-.55-.75c-.47-.58-.46-1,.04-1.27l5.85-3.48ZM675.19,298.71c-2.77-.13-4.21-.2-4.31-.2-1.42,0-2.41.21-2.97.63-.55.42-.83,1.07-.83,1.94s.26,1.56.77,2,1.5.65,2.95.65c1.69,0,3.01-.1,3.96-.32.29-.1.44-.29.44-.55v-4.15Z"/>
          <path class="cls-2" d="M692.83,285.86h1.27c.45,0,.76.09.95.26.18.17.28.49.28.97v1.74c0,.45-.09.77-.28.95s-.5.28-.95.28h-1.42c-1.48,0-2.73.16-3.76.47-.26.05-.4.21-.4.47v14.71c0,.45-.09.77-.26.95-.17.18-.48.28-.93.28h-2.18c-.45,0-.77-.09-.95-.28-.18-.18-.28-.5-.28-.95v-16.41c0-.63.1-1.1.3-1.4.2-.3.61-.59,1.25-.85,1.92-.71,4.38-1.11,7.36-1.19Z"/>
          <path class="cls-2" d="M700.34,278.78c.92,0,1.56.17,1.9.51.34.34.51.96.51,1.86v.36c0,.92-.17,1.56-.51,1.9s-.98.51-1.9.51h-.28c-.9,0-1.52-.17-1.88-.51-.36-.34-.53-.98-.53-1.9v-.36c0-.9.17-1.52.51-1.86s.98-.51,1.9-.51h.28ZM701.29,286.45c.45,0,.76.09.95.26.18.17.28.48.28.93v18.08c0,.45-.09.77-.28.95-.19.18-.5.28-.95.28h-2.18c-.45,0-.76-.09-.93-.28-.17-.18-.26-.5-.26-.95v-18.08c0-.45.09-.76.26-.93.17-.17.48-.26.93-.26h2.18Z"/>
          <path class="cls-2" d="M706.4,293.77c0-2.48.79-4.42,2.37-5.81s3.82-2.1,6.72-2.1,5.18.7,6.76,2.1,2.37,3.34,2.37,5.81v5.85c0,2.48-.79,4.42-2.37,5.81-1.58,1.4-3.84,2.1-6.76,2.1s-5.14-.7-6.72-2.1c-1.58-1.4-2.37-3.34-2.37-5.81v-5.85ZM720.04,293.77c0-1.21-.4-2.14-1.19-2.79-.79-.65-1.91-.97-3.36-.97s-2.56.32-3.34.97c-.78.65-1.17,1.58-1.17,2.79v5.85c0,1.19.39,2.11,1.17,2.77.78.66,1.89.99,3.34.99s2.57-.33,3.36-.99,1.19-1.58,1.19-2.77v-5.85Z"/>
          <path class="cls-2" d="M736.57,294.13c0-2.69.69-4.74,2.08-6.15,1.38-1.41,3.45-2.12,6.19-2.12,1.21,0,2.78.17,4.71.51v-7.48c0-.45.09-.76.26-.95.17-.18.48-.28.93-.28h2.18c.45,0,.76.09.95.28.18.18.28.5.28.95v25.19c0,.63-.11,1.09-.32,1.36s-.63.55-1.27.81c-2.24.84-4.71,1.27-7.4,1.27-5.72,0-8.58-2.66-8.58-7.99v-5.42ZM749.55,290.57c-1.58-.34-2.86-.51-3.84-.51-3.03,0-4.55,1.4-4.55,4.19v5.14c0,2.64,1.48,3.96,4.43,3.96,1.4,0,2.61-.14,3.64-.44.21-.08.32-.22.32-.44v-11.91Z"/>
          <path class="cls-2" d="M757.93,294.4c0-2.77.78-4.88,2.35-6.35,1.57-1.46,3.84-2.2,6.82-2.2s5.28.77,6.82,2.29,2.31,3.49,2.31,5.89v2.41c0,1.13-.59,1.7-1.78,1.7h-11.94v1.46c0,1.29.39,2.27,1.17,2.95.78.67,1.89,1.01,3.34,1.01,2.21,0,3.77-.7,4.67-2.1.32-.45.61-.71.89-.77.28-.07.65.03,1.13.3l1.38.75c.9.42,1.05,1.08.47,1.98-1.56,2.53-4.4,3.8-8.54,3.8-3.08,0-5.37-.76-6.86-2.29-1.49-1.53-2.23-3.59-2.23-6.17v-4.67ZM771.66,293.77c0-1.29-.38-2.29-1.15-2.99-.77-.7-1.9-1.05-3.4-1.05s-2.61.35-3.4,1.05c-.79.7-1.19,1.69-1.19,2.99v.87h9.14v-.87Z"/>
          <path class="cls-2" d="M799.22,278.86c3.64,0,6.46.93,8.46,2.79,2,1.86,3.01,4.41,3.01,7.65v7.2c0,3.24-1,5.79-3.01,7.65-2,1.86-4.83,2.79-8.46,2.79h-8.86c-.5,0-.86-.1-1.07-.3-.21-.2-.32-.55-.32-1.05v-25.39c0-.5.1-.85.32-1.05.21-.2.57-.3,1.07-.3h8.86ZM805.75,289.26c0-1.87-.56-3.3-1.68-4.29-1.12-.99-2.72-1.48-4.81-1.48h-5.3v18.83h5.3c2.08,0,3.68-.49,4.81-1.48,1.12-.99,1.68-2.42,1.68-4.29v-7.28Z"/>
          <path class="cls-2" d="M814.17,294.4c0-2.77.78-4.88,2.35-6.35,1.57-1.46,3.84-2.2,6.82-2.2s5.28.77,6.82,2.29,2.31,3.49,2.31,5.89v2.41c0,1.13-.59,1.7-1.78,1.7h-11.94v1.46c0,1.29.39,2.27,1.17,2.95.78.67,1.89,1.01,3.34,1.01,2.21,0,3.77-.7,4.67-2.1.32-.45.61-.71.89-.77.28-.07.65.03,1.13.3l1.38.75c.9.42,1.05,1.08.47,1.98-1.56,2.53-4.4,3.8-8.54,3.8-3.08,0-5.37-.76-6.86-2.29-1.49-1.53-2.23-3.59-2.23-6.17v-4.67ZM827.9,293.77c0-1.29-.38-2.29-1.15-2.99-.77-.7-1.9-1.05-3.4-1.05s-2.61.35-3.4,1.05c-.79.7-1.19,1.69-1.19,2.99v.87h9.14v-.87Z"/>
          <path class="cls-2" d="M835.33,292.23c0-1.95.69-3.5,2.08-4.65s3.41-1.72,6.07-1.72c4.25,0,7.07,1.41,8.46,4.23.42.79.21,1.38-.63,1.78l-1.78.71c-.45.18-.77.24-.97.18-.2-.07-.43-.31-.69-.73-.77-1.37-2.19-2.06-4.27-2.06-2.48,0-3.72.71-3.72,2.14,0,.87.34,1.46,1.03,1.76.69.3,1.88.53,3.6.69,2.69.26,4.71.84,6.05,1.72,1.34.88,2.02,2.43,2.02,4.65,0,2-.74,3.61-2.21,4.81-1.48,1.2-3.59,1.8-6.33,1.8-4.64,0-7.58-1.6-8.82-4.79-.32-.82-.05-1.37.79-1.66l1.78-.55c.4-.16.72-.18.97-.08.25.11.47.38.65.83.61,1.45,2.1,2.18,4.47,2.18,2.79,0,4.19-.78,4.19-2.33,0-.87-.35-1.46-1.05-1.78-.7-.32-1.93-.57-3.7-.75-.92-.1-1.71-.22-2.35-.34-.65-.12-1.35-.32-2.12-.61-.77-.29-1.38-.65-1.86-1.07-.47-.42-.87-1-1.19-1.74-.32-.74-.47-1.61-.47-2.61Z"/>
          <path class="cls-2" d="M855.35,294.4c0-2.77.78-4.88,2.35-6.35,1.57-1.46,3.84-2.2,6.82-2.2s5.28.77,6.82,2.29,2.31,3.49,2.31,5.89v2.41c0,1.13-.59,1.7-1.78,1.7h-11.94v1.46c0,1.29.39,2.27,1.17,2.95.78.67,1.89,1.01,3.34,1.01,2.21,0,3.77-.7,4.67-2.1.32-.45.61-.71.89-.77.28-.07.65.03,1.13.3l1.38.75c.9.42,1.05,1.08.47,1.98-1.56,2.53-4.4,3.8-8.54,3.8-3.08,0-5.37-.76-6.86-2.29-1.49-1.53-2.23-3.59-2.23-6.17v-4.67ZM869.07,293.77c0-1.29-.38-2.29-1.15-2.99-.77-.7-1.9-1.05-3.4-1.05s-2.61.35-3.4,1.05c-.79.7-1.19,1.69-1.19,2.99v.87h9.14v-.87Z"/>
          <path class="cls-2" d="M878.76,287.2c2.24-.9,4.84-1.34,7.79-1.34,2.77,0,4.83.69,6.19,2.06,1.36,1.37,2.04,3.34,2.04,5.89v11.91c0,.45-.09.77-.28.95-.18.18-.5.28-.95.28h-2.18c-.45,0-.76-.09-.93-.28-.17-.18-.26-.5-.26-.95v-11.79c0-2.58-1.44-3.88-4.31-3.88-1.27,0-2.53.17-3.8.51-.19.08-.28.21-.28.4v14.75c0,.45-.09.77-.26.95-.17.18-.48.28-.93.28h-2.18c-.45,0-.77-.09-.95-.28-.18-.18-.28-.5-.28-.95v-16.26c0-.63.1-1.1.3-1.4.2-.3.61-.59,1.25-.85Z"/>
          <path class="cls-2" d="M915.27,286.45c.61,0,.98.09,1.13.28.14.19.11.55-.1,1.11l-7.32,18.04c-.29.74-.84,1.11-1.66,1.11h-1.31c-.84,0-1.4-.37-1.66-1.11l-7.28-18c-.21-.58-.25-.96-.12-1.15.13-.18.5-.28,1.11-.28h1.54c.74,0,1.25.08,1.52.24s.49.49.65.99l3.68,9.49c.13.34.26.72.38,1.13.12.41.22.78.32,1.13.09.34.16.66.22.95.05.29.1.53.16.71l.04.32h.2s.08-.26.16-.69.2-.99.38-1.66c.17-.67.35-1.29.53-1.84l3.64-9.53c.21-.5.45-.83.71-.99.26-.16.76-.24,1.5-.24h1.58Z"/>
          <path class="cls-2" d="M917.96,293.77c0-2.48.79-4.42,2.37-5.81s3.82-2.1,6.72-2.1,5.18.7,6.76,2.1,2.37,3.34,2.37,5.81v5.85c0,2.48-.79,4.42-2.37,5.81-1.58,1.4-3.84,2.1-6.76,2.1s-5.14-.7-6.72-2.1c-1.58-1.4-2.37-3.34-2.37-5.81v-5.85ZM931.6,293.77c0-1.21-.4-2.14-1.19-2.79-.79-.65-1.91-.97-3.36-.97s-2.56.32-3.34.97c-.78.65-1.17,1.58-1.17,2.79v5.85c0,1.19.39,2.11,1.17,2.77.78.66,1.89.99,3.34.99s2.57-.33,3.36-.99,1.19-1.58,1.19-2.77v-5.85Z"/>
          <path class="cls-2" d="M944.81,305.71c0,.45-.09.77-.28.95-.19.18-.5.28-.95.28h-2.14c-.47,0-.8-.09-.97-.28-.17-.18-.26-.5-.26-.95v-26.82c0-.45.09-.76.26-.95.17-.18.49-.28.97-.28h2.14c.45,0,.76.09.95.28.18.18.28.5.28.95v26.82Z"/>
          <path class="cls-2" d="M966.01,286.45c.61,0,.98.09,1.13.28.14.19.11.55-.1,1.11l-7.32,18.04c-.29.74-.84,1.11-1.66,1.11h-1.31c-.84,0-1.4-.37-1.66-1.11l-7.28-18c-.21-.58-.25-.96-.12-1.15.13-.18.5-.28,1.11-.28h1.54c.74,0,1.25.08,1.52.24s.49.49.65.99l3.68,9.49c.13.34.26.72.38,1.13.12.41.22.78.32,1.13.09.34.16.66.22.95.05.29.1.53.16.71l.04.32h.2s.08-.26.16-.69.2-.99.38-1.66c.17-.67.35-1.29.53-1.84l3.64-9.53c.21-.5.45-.83.71-.99.26-.16.76-.24,1.5-.24h1.58Z"/>
          <path class="cls-2" d="M972.3,278.78c.92,0,1.56.17,1.9.51.34.34.51.96.51,1.86v.36c0,.92-.17,1.56-.51,1.9s-.98.51-1.9.51h-.28c-.9,0-1.52-.17-1.88-.51-.36-.34-.53-.98-.53-1.9v-.36c0-.9.17-1.52.51-1.86s.98-.51,1.9-.51h.28ZM973.25,286.45c.45,0,.76.09.95.26.18.17.28.48.28.93v18.08c0,.45-.09.77-.28.95-.19.18-.5.28-.95.28h-2.18c-.45,0-.76-.09-.93-.28-.17-.18-.26-.5-.26-.95v-18.08c0-.45.09-.76.26-.93.17-.17.48-.26.93-.26h2.18Z"/>
          <path class="cls-2" d="M992.59,287.16c2.16-.87,4.48-1.31,6.96-1.31,5.17,0,7.75,2.62,7.75,7.87v11.98c0,.45-.09.77-.26.95-.17.18-.48.28-.93.28h-2.18c-.45,0-.77-.09-.95-.28-.18-.18-.28-.5-.28-.95v-11.83c0-2.56-1.28-3.84-3.84-3.84-1.19,0-2.47.24-3.84.71.29.77.44,1.75.44,2.97v11.98c0,.45-.09.77-.28.95-.18.18-.5.28-.95.28h-2.14c-.45,0-.77-.09-.95-.28-.18-.18-.28-.5-.28-.95v-11.83c0-2.56-1.29-3.84-3.88-3.84-1.13,0-2.19.16-3.16.47-.21.08-.32.24-.32.47v14.71c0,.45-.09.77-.26.95-.17.18-.48.28-.93.28h-2.18c-.45,0-.77-.09-.95-.28-.18-.18-.28-.5-.28-.95v-16.26c0-.63.1-1.1.32-1.4.21-.3.62-.59,1.23-.85,2.19-.9,4.59-1.34,7.2-1.34,2.08,0,3.72.44,4.9,1.31Z"/>
          <path class="cls-2" d="M1011.02,294.4c0-2.77.78-4.88,2.35-6.35,1.57-1.46,3.84-2.2,6.82-2.2s5.28.77,6.82,2.29,2.31,3.49,2.31,5.89v2.41c0,1.13-.59,1.7-1.78,1.7h-11.94v1.46c0,1.29.39,2.27,1.17,2.95.78.67,1.89,1.01,3.34,1.01,2.21,0,3.77-.7,4.67-2.1.32-.45.61-.71.89-.77.28-.07.65.03,1.13.3l1.38.75c.9.42,1.05,1.08.47,1.98-1.56,2.53-4.4,3.8-8.54,3.8-3.08,0-5.37-.76-6.86-2.29-1.49-1.53-2.23-3.59-2.23-6.17v-4.67ZM1024.75,293.77c0-1.29-.38-2.29-1.15-2.99-.77-.7-1.9-1.05-3.4-1.05s-2.61.35-3.4,1.05c-.79.7-1.19,1.69-1.19,2.99v.87h9.14v-.87Z"/>
          <path class="cls-2" d="M1034.44,287.2c2.24-.9,4.84-1.34,7.79-1.34,2.77,0,4.83.69,6.19,2.06,1.36,1.37,2.04,3.34,2.04,5.89v11.91c0,.45-.09.77-.28.95-.18.18-.5.28-.95.28h-2.18c-.45,0-.76-.09-.93-.28-.17-.18-.26-.5-.26-.95v-11.79c0-2.58-1.44-3.88-4.31-3.88-1.27,0-2.53.17-3.8.51-.19.08-.28.21-.28.4v14.75c0,.45-.09.77-.26.95-.17.18-.48.28-.93.28h-2.18c-.45,0-.77-.09-.95-.28-.18-.18-.28-.5-.28-.95v-16.26c0-.63.1-1.1.3-1.4.2-.3.61-.59,1.25-.85Z"/>
          <path class="cls-2" d="M1060.03,281.71c.45,0,.76.09.95.26.18.17.28.48.28.93v3.56h4.51c.45,0,.76.09.95.26.18.17.28.48.28.93v1.82c0,.45-.09.77-.28.95s-.5.28-.95.28h-4.51v7.95c0,1.87.31,3.1.93,3.68.62.58,1.8.87,3.54.87.47,0,.8.09.99.26.18.17.28.49.28.97v1.82c0,.47-.09.8-.28.97-.18.17-.51.27-.99.3-3.32.1-5.66-.47-7.02-1.74-1.36-1.27-2.04-3.59-2.04-6.96v-8.11h-2.73c-.45,0-.76-.09-.93-.28-.17-.18-.26-.5-.26-.95v-1.82c0-.45.09-.76.26-.93.17-.17.48-.26.93-.26h2.73v-3.56c0-.45.09-.76.28-.93s.5-.26.95-.26h2.14Z"/>
          <path class="cls-2" d="M1069.4,293.77c0-2.48.79-4.42,2.37-5.81s3.82-2.1,6.72-2.1,5.18.7,6.76,2.1,2.37,3.34,2.37,5.81v5.85c0,2.48-.79,4.42-2.37,5.81-1.58,1.4-3.84,2.1-6.76,2.1s-5.14-.7-6.72-2.1c-1.58-1.4-2.37-3.34-2.37-5.81v-5.85ZM1083.05,293.77c0-1.21-.4-2.14-1.19-2.79-.79-.65-1.91-.97-3.36-.97s-2.56.32-3.34.97c-.78.65-1.17,1.58-1.17,2.79v5.85c0,1.19.39,2.11,1.17,2.77.78.66,1.89.99,3.34.99s2.57-.33,3.36-.99,1.19-1.58,1.19-2.77v-5.85Z"/>
          <path class="cls-2" d="M1112.95,278.86c2.77,0,4.94.77,6.53,2.31,1.58,1.54,2.37,3.67,2.37,6.39,0,2.03-.46,3.73-1.36,5.1-.91,1.37-2.19,2.33-3.86,2.89.47.4.9.96,1.27,1.7l4.35,8.35c.47.9.25,1.34-.67,1.34h-2.29c-.87,0-1.48-.07-1.82-.22-.34-.14-.63-.47-.87-.97l-3.32-6.72c-.53-1.11-1.11-1.85-1.74-2.21-.63-.37-1.62-.55-2.97-.55h-2.93v9.33c0,.5-.1.85-.3,1.05s-.55.3-1.05.3h-2.25c-.5,0-.86-.1-1.07-.3-.21-.2-.32-.55-.32-1.05v-25.39c0-.5.1-.85.32-1.05.21-.2.57-.3,1.07-.3h10.92ZM1115.54,290.59c.72-.7,1.09-1.71,1.09-3.03s-.36-2.33-1.07-3.03c-.71-.7-1.74-1.05-3.08-1.05h-6.84v8.15h6.84c1.32,0,2.34-.35,3.07-1.05Z"/>
          <path class="cls-2" d="M1124.89,294.4c0-2.77.78-4.88,2.35-6.35,1.57-1.46,3.84-2.2,6.82-2.2s5.28.77,6.82,2.29,2.31,3.49,2.31,5.89v2.41c0,1.13-.59,1.7-1.78,1.7h-11.94v1.46c0,1.29.39,2.27,1.17,2.95.78.67,1.89,1.01,3.34,1.01,2.21,0,3.77-.7,4.67-2.1.32-.45.61-.71.89-.77.28-.07.65.03,1.13.3l1.38.75c.9.42,1.05,1.08.47,1.98-1.56,2.53-4.4,3.8-8.54,3.8-3.08,0-5.37-.76-6.86-2.29-1.49-1.53-2.23-3.59-2.23-6.17v-4.67ZM1138.62,293.77c0-1.29-.38-2.29-1.15-2.99-.77-.7-1.9-1.05-3.4-1.05s-2.61.35-3.4,1.05c-.79.7-1.19,1.69-1.19,2.99v.87h9.14v-.87Z"/>
          <path class="cls-2" d="M1146.17,294.16c0-5.54,2.98-8.31,8.94-8.31,2.98,0,5.37.41,7.16,1.23.63.29,1.03.57,1.21.83.17.26.26.71.26,1.34v18.35c0,2.72-.71,4.83-2.12,6.35-1.41,1.52-3.61,2.27-6.59,2.27-3.96,0-6.68-1.27-8.19-3.8-.58-.84-.42-1.5.47-1.98l1.5-.83c.47-.24.85-.32,1.13-.26.28.07.57.31.89.73.84,1.34,2.22,2.02,4.11,2.02,2.79,0,4.19-1.42,4.19-4.27v-1.98c-1.77.47-3.35.71-4.75.71-2.77,0-4.83-.69-6.19-2.06-1.36-1.37-2.04-3.34-2.04-5.89v-4.47ZM1158.79,290.49c-1.05-.29-2.18-.44-3.36-.44-3.11,0-4.67,1.42-4.67,4.27v4.19c0,1.24.37,2.2,1.11,2.87.74.67,1.81,1.01,3.2,1.01,1.19,0,2.54-.18,4.07-.55v-10.88c0-.21-.12-.37-.36-.47Z"/>
          <path class="cls-2" d="M1170.65,278.78c.92,0,1.56.17,1.9.51.34.34.51.96.51,1.86v.36c0,.92-.17,1.56-.51,1.9s-.98.51-1.9.51h-.28c-.9,0-1.52-.17-1.88-.51-.36-.34-.53-.98-.53-1.9v-.36c0-.9.17-1.52.51-1.86s.98-.51,1.9-.51h.28ZM1171.6,286.45c.45,0,.76.09.95.26.18.17.28.48.28.93v18.08c0,.45-.09.77-.28.95-.19.18-.5.28-.95.28h-2.18c-.45,0-.76-.09-.93-.28-.17-.18-.26-.5-.26-.95v-18.08c0-.45.09-.76.26-.93.17-.17.48-.26.93-.26h2.18Z"/>
          <path class="cls-2" d="M1176.7,293.77c0-2.48.79-4.42,2.37-5.81s3.82-2.1,6.72-2.1,5.18.7,6.76,2.1,2.37,3.34,2.37,5.81v5.85c0,2.48-.79,4.42-2.37,5.81-1.58,1.4-3.84,2.1-6.76,2.1s-5.14-.7-6.72-2.1c-1.58-1.4-2.37-3.34-2.37-5.81v-5.85ZM1190.35,293.77c0-1.21-.4-2.14-1.19-2.79-.79-.65-1.91-.97-3.36-.97s-2.56.32-3.34.97c-.78.65-1.17,1.58-1.17,2.79v5.85c0,1.19.39,2.11,1.17,2.77.78.66,1.89.99,3.34.99s2.57-.33,3.36-.99,1.19-1.58,1.19-2.77v-5.85Z"/>
          <path class="cls-2" d="M1200.32,287.2c2.24-.9,4.84-1.34,7.79-1.34,2.77,0,4.83.69,6.19,2.06,1.36,1.37,2.04,3.34,2.04,5.89v11.91c0,.45-.09.77-.28.95-.18.18-.5.28-.95.28h-2.18c-.45,0-.76-.09-.93-.28-.17-.18-.26-.5-.26-.95v-11.79c0-2.58-1.44-3.88-4.31-3.88-1.27,0-2.53.17-3.8.51-.19.08-.28.21-.28.4v14.75c0,.45-.09.77-.26.95-.17.18-.48.28-.93.28h-2.18c-.45,0-.77-.09-.95-.28-.18-.18-.28-.5-.28-.95v-16.26c0-.63.1-1.1.3-1.4.2-.3.61-.59,1.25-.85Z"/>
          <path class="cls-2" d="M1220.37,289.97c1.42-2.74,4.15-4.11,8.19-4.11,5.64,0,8.46,2.72,8.46,8.15v10.24c0,.69-.1,1.17-.3,1.46-.2.29-.57.55-1.13.79-1.58.69-3.96,1.03-7.12,1.03-3.35,0-5.66-.52-6.92-1.56-1.27-1.04-1.9-2.66-1.9-4.84,0-2.35.69-4,2.08-4.94s3.68-1.42,6.9-1.42c.29,0,1.56.07,3.8.2v-1.11c0-1.29-.3-2.27-.91-2.93-.61-.66-1.62-.99-3.05-.99-1.95,0-3.34.63-4.15,1.9-.29.42-.53.67-.73.73-.2.07-.52.02-.97-.14l-1.58-.67c-.87-.4-1.09-.99-.67-1.78ZM1232.43,298.71c-2.77-.13-4.21-.2-4.31-.2-1.42,0-2.41.21-2.97.63-.55.42-.83,1.07-.83,1.94s.26,1.56.77,2,1.5.65,2.95.65c1.69,0,3.01-.1,3.96-.32.29-.1.44-.29.44-.55v-4.15Z"/>
          <path class="cls-2" d="M1245.96,305.71c0,.45-.09.77-.28.95-.19.18-.5.28-.95.28h-2.14c-.47,0-.8-.09-.97-.28-.17-.18-.26-.5-.26-.95v-26.82c0-.45.09-.76.26-.95.17-.18.49-.28.97-.28h2.14c.45,0,.76.09.95.28.18.18.28.5.28.95v26.82Z"/>
          <path class="cls-2" d="M1252.72,310.54c-.16.47-.34.8-.55.97-.21.17-.53.26-.95.26h-.87c-.37,0-.61-.06-.73-.18s-.15-.36-.1-.73l.99-7.36c.08-.55.24-.93.47-1.13s.62-.3,1.15-.3h1.78c1.16,0,1.57.47,1.23,1.42l-2.41,7.04Z"/>
          <path class="cls-2" d="M1285.55,278.86c.5,0,.86.1,1.07.3.21.2.32.55.32,1.05v1.94c0,.5-.11.85-.32,1.05-.21.2-.57.3-1.07.3h-12.1v6.92h10.24c.5,0,.85.1,1.05.3s.3.55.3,1.05v1.94c0,.5-.1.85-.3,1.05s-.55.3-1.05.3h-10.24v7.28h12.54c.5,0,.85.1,1.05.3s.3.55.3,1.05v1.94c0,.5-.1.85-.3,1.05s-.55.3-1.05.3h-16.14c-.5,0-.86-.1-1.07-.3-.21-.2-.32-.55-.32-1.05v-25.39c0-.5.1-.85.32-1.05.21-.2.57-.3,1.07-.3h15.7Z"/>
          <path class="cls-2" d="M1290.06,292.23c0-1.95.69-3.5,2.08-4.65s3.41-1.72,6.07-1.72c4.25,0,7.07,1.41,8.46,4.23.42.79.21,1.38-.63,1.78l-1.78.71c-.45.18-.77.24-.97.18-.2-.07-.43-.31-.69-.73-.77-1.37-2.19-2.06-4.27-2.06-2.48,0-3.72.71-3.72,2.14,0,.87.34,1.46,1.03,1.76.69.3,1.88.53,3.6.69,2.69.26,4.71.84,6.05,1.72,1.34.88,2.02,2.43,2.02,4.65,0,2-.74,3.61-2.21,4.81-1.48,1.2-3.59,1.8-6.33,1.8-4.64,0-7.58-1.6-8.82-4.79-.32-.82-.05-1.37.79-1.66l1.78-.55c.4-.16.72-.18.97-.08.25.11.47.38.65.83.61,1.45,2.1,2.18,4.47,2.18,2.79,0,4.19-.78,4.19-2.33,0-.87-.35-1.46-1.05-1.78-.7-.32-1.93-.57-3.7-.75-.92-.1-1.71-.22-2.35-.34-.65-.12-1.35-.32-2.12-.61-.77-.29-1.38-.65-1.86-1.07-.47-.42-.87-1-1.19-1.74-.32-.74-.47-1.61-.47-2.61Z"/>
          <path class="cls-2" d="M1316.13,281.71c.45,0,.76.09.95.26.18.17.28.48.28.93v3.56h4.51c.45,0,.76.09.95.26.18.17.28.48.28.93v1.82c0,.45-.09.77-.28.95s-.5.28-.95.28h-4.51v7.95c0,1.87.31,3.1.93,3.68.62.58,1.8.87,3.54.87.47,0,.8.09.99.26.18.17.28.49.28.97v1.82c0,.47-.09.8-.28.97-.18.17-.51.27-.99.3-3.32.1-5.66-.47-7.02-1.74-1.36-1.27-2.04-3.59-2.04-6.96v-8.11h-2.73c-.45,0-.76-.09-.93-.28-.17-.18-.26-.5-.26-.95v-1.82c0-.45.09-.76.26-.93.17-.17.48-.26.93-.26h2.73v-3.56c0-.45.09-.76.28-.93s.5-.26.95-.26h2.14Z"/>
          <path class="cls-2" d="M1325.81,289.97c1.42-2.74,4.15-4.11,8.19-4.11,5.64,0,8.46,2.72,8.46,8.15v10.24c0,.69-.1,1.17-.3,1.46-.2.29-.57.55-1.13.79-1.58.69-3.96,1.03-7.12,1.03-3.35,0-5.66-.52-6.92-1.56-1.27-1.04-1.9-2.66-1.9-4.84,0-2.35.69-4,2.08-4.94s3.68-1.42,6.9-1.42c.29,0,1.56.07,3.8.2v-1.11c0-1.29-.3-2.27-.91-2.93-.61-.66-1.62-.99-3.05-.99-1.95,0-3.34.63-4.15,1.9-.29.42-.53.67-.73.73-.2.07-.52.02-.97-.14l-1.58-.67c-.87-.4-1.09-.99-.67-1.78ZM1337.88,298.71c-2.77-.13-4.21-.2-4.31-.2-1.42,0-2.41.21-2.97.63-.55.42-.83,1.07-.83,1.94s.26,1.56.77,2,1.5.65,2.95.65c1.69,0,3.01-.1,3.96-.32.29-.1.44-.29.44-.55v-4.15Z"/>
          <path class="cls-2" d="M1346.07,294.13c0-2.69.69-4.74,2.08-6.15,1.38-1.41,3.45-2.12,6.19-2.12,1.21,0,2.78.17,4.71.51v-7.48c0-.45.09-.76.26-.95.17-.18.48-.28.93-.28h2.18c.45,0,.76.09.95.28.18.18.28.5.28.95v25.19c0,.63-.11,1.09-.32,1.36s-.63.55-1.27.81c-2.24.84-4.71,1.27-7.4,1.27-5.72,0-8.58-2.66-8.58-7.99v-5.42ZM1359.04,290.57c-1.58-.34-2.86-.51-3.84-.51-3.03,0-4.55,1.4-4.55,4.19v5.14c0,2.64,1.48,3.96,4.43,3.96,1.4,0,2.61-.14,3.64-.44.21-.08.32-.22.32-.44v-11.91Z"/>
          <path class="cls-2" d="M1367.46,293.77c0-2.48.79-4.42,2.37-5.81s3.82-2.1,6.72-2.1,5.18.7,6.76,2.1,2.37,3.34,2.37,5.81v5.85c0,2.48-.79,4.42-2.37,5.81-1.58,1.4-3.84,2.1-6.76,2.1s-5.14-.7-6.72-2.1c-1.58-1.4-2.37-3.34-2.37-5.81v-5.85ZM1381.11,293.77c0-1.21-.4-2.14-1.19-2.79-.79-.65-1.91-.97-3.36-.97s-2.56.32-3.34.97c-.78.65-1.17,1.58-1.17,2.79v5.85c0,1.19.39,2.11,1.17,2.77.78.66,1.89.99,3.34.99s2.57-.33,3.36-.99,1.19-1.58,1.19-2.77v-5.85Z"/>
          <path class="cls-2" d="M1397.56,294.4c0-2.77.78-4.88,2.35-6.35,1.57-1.46,3.84-2.2,6.82-2.2s5.28.77,6.82,2.29,2.31,3.49,2.31,5.89v2.41c0,1.13-.59,1.7-1.78,1.7h-11.94v1.46c0,1.29.39,2.27,1.17,2.95.78.67,1.89,1.01,3.34,1.01,2.21,0,3.77-.7,4.67-2.1.32-.45.61-.71.89-.77.28-.07.65.03,1.13.3l1.38.75c.9.42,1.05,1.08.47,1.98-1.56,2.53-4.4,3.8-8.54,3.8-3.08,0-5.37-.76-6.86-2.29-1.49-1.53-2.23-3.59-2.23-6.17v-4.67ZM1411.29,293.77c0-1.29-.38-2.29-1.15-2.99-.77-.7-1.9-1.05-3.4-1.05s-2.61.35-3.4,1.05c-.79.7-1.19,1.69-1.19,2.99v.87h9.14v-.87Z"/>
          <path class="cls-2" d="M1427.58,286.93c0-2.58.94-4.67,2.83-6.27,1.88-1.59,4.55-2.39,8.01-2.39,2.74,0,4.92.49,6.53,1.46,1.61.98,2.9,2.48,3.88,4.51.4.82.14,1.42-.75,1.82l-2.18.95c-.45.19-.79.23-1.01.14-.22-.09-.46-.36-.69-.81-.55-1.11-1.28-1.94-2.18-2.49-.9-.55-2.1-.83-3.6-.83-3.82,0-5.73,1.21-5.73,3.64,0,.69.17,1.26.51,1.72.34.46.88.82,1.6,1.09.73.26,1.42.45,2.08.57.66.12,1.54.24,2.65.38,1.11.13,2.06.28,2.87.44.8.16,1.69.43,2.65.81.96.38,1.75.85,2.35,1.4.61.55,1.12,1.31,1.54,2.27.42.96.63,2.08.63,3.34,0,2.69-.99,4.84-2.97,6.45-1.98,1.61-4.75,2.41-8.31,2.41-2.98,0-5.33-.55-7.04-1.64-1.71-1.09-2.99-2.75-3.84-4.96-.18-.5-.21-.88-.08-1.13.13-.25.44-.46.91-.61l2.18-.79c.45-.16.79-.18,1.03-.06s.46.42.67.89c1.03,2.45,3.09,3.68,6.17,3.68,4.19,0,6.29-1.37,6.29-4.11,0-.87-.32-1.57-.95-2.1-.63-.53-1.34-.89-2.14-1.09s-1.85-.36-3.16-.49c-.9-.1-1.62-.19-2.16-.26-.54-.07-1.23-.19-2.08-.38-.84-.18-1.53-.4-2.06-.63s-1.11-.56-1.74-.97c-.63-.41-1.12-.88-1.46-1.4-.34-.53-.64-1.18-.89-1.96-.25-.78-.38-1.64-.38-2.59Z"/>
          <path class="cls-2" d="M1452.5,293.77c0-2.48.79-4.42,2.37-5.81s3.82-2.1,6.72-2.1,5.18.7,6.76,2.1,2.37,3.34,2.37,5.81v5.85c0,2.48-.79,4.42-2.37,5.81-1.58,1.4-3.84,2.1-6.76,2.1s-5.14-.7-6.72-2.1c-1.58-1.4-2.37-3.34-2.37-5.81v-5.85ZM1466.14,293.77c0-1.21-.4-2.14-1.19-2.79-.79-.65-1.91-.97-3.36-.97s-2.56.32-3.34.97c-.78.65-1.17,1.58-1.17,2.79v5.85c0,1.19.39,2.11,1.17,2.77.78.66,1.89.99,3.34.99s2.57-.33,3.36-.99,1.19-1.58,1.19-2.77v-5.85Z"/>
          <path class="cls-2" d="M1473.98,293.97c0-2.58.76-4.58,2.27-5.99,1.52-1.41,3.79-2.12,6.82-2.12,2.24,0,4.08.47,5.52,1.42,1.44.95,2.42,2.2,2.95,3.76.16.5.17.88.04,1.13-.13.25-.44.47-.91.65l-1.74.55c-.47.18-.84.21-1.09.08-.25-.13-.47-.44-.65-.91-.69-1.77-2.12-2.65-4.31-2.65-2.87,0-4.31,1.29-4.31,3.88v5.85c0,1.24.37,2.2,1.11,2.87.74.67,1.81,1.01,3.2,1.01,2.19,0,3.62-.91,4.31-2.73.18-.48.4-.76.65-.87.25-.1.61-.08,1.09.08l1.78.51c.9.34,1.17.94.83,1.78-1.37,3.51-4.31,5.26-8.82,5.26-2.93,0-5.12-.71-6.57-2.12-1.45-1.41-2.18-3.41-2.18-5.99v-5.46Z"/>
          <path class="cls-2" d="M1497.51,278.78c.92,0,1.56.17,1.9.51.34.34.51.96.51,1.86v.36c0,.92-.17,1.56-.51,1.9s-.98.51-1.9.51h-.28c-.9,0-1.52-.17-1.88-.51-.36-.34-.53-.98-.53-1.9v-.36c0-.9.17-1.52.51-1.86s.98-.51,1.9-.51h.28ZM1498.46,286.45c.45,0,.76.09.95.26.18.17.28.48.28.93v18.08c0,.45-.09.77-.28.95-.19.18-.5.28-.95.28h-2.18c-.45,0-.76-.09-.93-.28-.17-.18-.26-.5-.26-.95v-18.08c0-.45.09-.76.26-.93.17-.17.48-.26.93-.26h2.18Z"/>
          <path class="cls-2" d="M1503.52,294.4c0-2.77.78-4.88,2.35-6.35,1.57-1.46,3.84-2.2,6.82-2.2s5.28.77,6.82,2.29,2.31,3.49,2.31,5.89v2.41c0,1.13-.59,1.7-1.78,1.7h-11.94v1.46c0,1.29.39,2.27,1.17,2.95.78.67,1.89,1.01,3.34,1.01,2.21,0,3.77-.7,4.67-2.1.32-.45.61-.71.89-.77.28-.07.65.03,1.13.3l1.38.75c.9.42,1.05,1.08.47,1.98-1.56,2.53-4.4,3.8-8.54,3.8-3.08,0-5.37-.76-6.86-2.29-1.49-1.53-2.23-3.59-2.23-6.17v-4.67ZM1517.25,293.77c0-1.29-.38-2.29-1.15-2.99-.77-.7-1.9-1.05-3.4-1.05s-2.61.35-3.4,1.05c-.79.7-1.19,1.69-1.19,2.99v.87h9.14v-.87Z"/>
          <path class="cls-2" d="M1524.84,294.13c0-2.69.69-4.74,2.08-6.15,1.38-1.41,3.45-2.12,6.19-2.12,1.21,0,2.78.17,4.71.51v-7.48c0-.45.09-.76.26-.95.17-.18.48-.28.93-.28h2.18c.45,0,.76.09.95.28.18.18.28.5.28.95v25.19c0,.63-.11,1.09-.32,1.36s-.63.55-1.27.81c-2.24.84-4.71,1.27-7.4,1.27-5.72,0-8.58-2.66-8.58-7.99v-5.42ZM1537.81,290.57c-1.58-.34-2.86-.51-3.84-.51-3.03,0-4.55,1.4-4.55,4.19v5.14c0,2.64,1.48,3.96,4.43,3.96,1.4,0,2.61-.14,3.64-.44.21-.08.32-.22.32-.44v-11.91Z"/>
          <path class="cls-2" d="M1546.55,289.97c1.42-2.74,4.15-4.11,8.19-4.11,5.64,0,8.46,2.72,8.46,8.15v10.24c0,.69-.1,1.17-.3,1.46-.2.29-.57.55-1.13.79-1.58.69-3.96,1.03-7.12,1.03-3.35,0-5.66-.52-6.92-1.56-1.27-1.04-1.9-2.66-1.9-4.84,0-2.35.69-4,2.08-4.94s3.68-1.42,6.9-1.42c.29,0,1.56.07,3.8.2v-1.11c0-1.29-.3-2.27-.91-2.93-.61-.66-1.62-.99-3.05-.99-1.95,0-3.34.63-4.15,1.9-.29.42-.53.67-.73.73-.2.07-.52.02-.97-.14l-1.58-.67c-.87-.4-1.09-.99-.67-1.78ZM1558.62,298.71c-2.77-.13-4.21-.2-4.31-.2-1.42,0-2.41.21-2.97.63-.55.42-.83,1.07-.83,1.94s.26,1.56.77,2,1.5.65,2.95.65c1.69,0,3.01-.1,3.96-.32.29-.1.44-.29.44-.55v-4.15Z"/>
          <path class="cls-2" d="M1566.8,294.13c0-2.69.69-4.74,2.08-6.15,1.38-1.41,3.45-2.12,6.19-2.12,1.21,0,2.78.17,4.71.51v-7.48c0-.45.09-.76.26-.95.17-.18.48-.28.93-.28h2.18c.45,0,.76.09.95.28.18.18.28.5.28.95v25.19c0,.63-.11,1.09-.32,1.36s-.63.55-1.27.81c-2.24.84-4.71,1.27-7.4,1.27-5.72,0-8.58-2.66-8.58-7.99v-5.42ZM1579.78,290.57c-1.58-.34-2.86-.51-3.84-.51-3.03,0-4.55,1.4-4.55,4.19v5.14c0,2.64,1.48,3.96,4.43,3.96,1.4,0,2.61-.14,3.64-.44.21-.08.32-.22.32-.44v-11.91Z"/>
          <path class="cls-2" d="M1588.16,294.4c0-2.77.78-4.88,2.35-6.35,1.57-1.46,3.84-2.2,6.82-2.2s5.28.77,6.82,2.29,2.31,3.49,2.31,5.89v2.41c0,1.13-.59,1.7-1.78,1.7h-11.94v1.46c0,1.29.39,2.27,1.17,2.95.78.67,1.89,1.01,3.34,1.01,2.21,0,3.77-.7,4.67-2.1.32-.45.61-.71.89-.77.28-.07.65.03,1.13.3l1.38.75c.9.42,1.05,1.08.47,1.98-1.56,2.53-4.4,3.8-8.54,3.8-3.08,0-5.37-.76-6.86-2.29-1.49-1.53-2.23-3.59-2.23-6.17v-4.67ZM1601.89,293.77c0-1.29-.38-2.29-1.15-2.99-.77-.7-1.9-1.05-3.4-1.05s-2.61.35-3.4,1.05c-.79.7-1.19,1.69-1.19,2.99v.87h9.14v-.87Z"/>
        </g>
        <g>
          <path class="cls-2" d="M656.92,83.53c3.81,0,4.97,1.77,3.47,5.31l-51.03,135.14c-.95,3-3.13,4.49-6.53,4.49h-8.37c-3.54,0-5.79-1.43-6.74-4.29l-51.03-135.34c-1.23-3.54,0-5.31,3.67-5.31h7.96c3.27,0,5.51.31,6.74.92,1.22.61,2.18,1.87,2.86,3.78l35.52,97.98c.82,2.32,1.6,4.97,2.35,7.96.75,3,1.36,5.48,1.84,7.45.48,1.97.78,3.1.92,3.37h.82c.13-.27.44-1.39.92-3.37.48-1.97,1.09-4.42,1.84-7.35.75-2.92,1.53-5.54,2.35-7.86l35.11-98.19c.68-1.9,1.66-3.16,2.96-3.78,1.29-.61,3.57-.92,6.84-.92h7.55Z"/>
          <path class="cls-2" d="M677.94,88.84c0-1.9.41-3.27,1.22-4.08.82-.82,2.18-1.22,4.08-1.22h8.98c2.04,0,3.47.41,4.29,1.22.82.82,1.22,2.18,1.22,4.08v134.32c0,1.91-.41,3.27-1.22,4.08s-2.25,1.22-4.29,1.22h-8.98c-1.91,0-3.27-.41-4.08-1.22-.82-.82-1.22-2.18-1.22-4.08V88.84Z"/>
          <path class="cls-2" d="M727.95,88.84c0-1.9.41-3.27,1.22-4.08.82-.82,2.18-1.22,4.08-1.22h8.98c2.04,0,3.47.41,4.29,1.22.82.82,1.22,2.18,1.22,4.08v134.32c0,1.91-.41,3.27-1.22,4.08s-2.25,1.22-4.29,1.22h-8.98c-1.91,0-3.27-.41-4.08-1.22-.82-.82-1.22-2.18-1.22-4.08V88.84Z"/>
          <path class="cls-2" d="M777.96,88.84c0-1.9.41-3.27,1.22-4.08.82-.82,2.18-1.22,4.08-1.22h8.98c2.04,0,3.47.41,4.29,1.22.82.82,1.22,2.18,1.22,4.08v134.32c0,1.91-.41,3.27-1.22,4.08s-2.25,1.22-4.29,1.22h-8.98c-1.91,0-3.27-.41-4.08-1.22-.82-.82-1.22-2.18-1.22-4.08V88.84Z"/>
          <path class="cls-2" d="M855.33,126.19c0-13.74,5.34-24.8,16.02-33.17,10.68-8.37,25.55-12.55,44.6-12.55,14.97,0,27.01,2.32,36.13,6.94,9.12,4.63,16.06,11.84,20.82,21.64,2.58,5.31.95,9.12-4.9,11.43l-20.41,8.78c-2.72,1.22-4.83,1.57-6.33,1.02-1.5-.54-3.06-2.31-4.7-5.31-3.54-7.07-10.41-10.62-20.62-10.62-12.93,0-19.39,3.54-19.39,10.62,0,3.95,2.18,6.74,6.53,8.37,4.35,1.63,11.09,3,20.21,4.08,5.99.82,10.95,1.63,14.9,2.45,3.95.82,8.68,2.35,14.19,4.59,5.51,2.25,9.9,4.93,13.17,8.06,3.27,3.13,6.09,7.49,8.47,13.06,2.38,5.58,3.57,12.04,3.57,19.39,0,14.56-5.89,25.96-17.66,34.19-11.77,8.24-26.98,12.35-45.62,12.35-31.84,0-51.65-10.54-59.4-31.64-1.09-3.13-1.19-5.51-.31-7.14.88-1.63,2.82-2.99,5.82-4.08l19.19-6.94c2.99-1.09,5.37-1.33,7.14-.71,1.77.61,3.4,2.35,4.9,5.21,3.67,7.21,11.36,10.82,23.07,10.82,14.56,0,21.84-3.88,21.84-11.64,0-3.67-1.97-6.33-5.92-7.96-3.95-1.63-9.94-2.99-17.96-4.08-3.81-.54-6.6-.95-8.37-1.22-1.77-.27-4.56-.78-8.37-1.53-3.81-.75-6.77-1.46-8.88-2.14-2.11-.68-4.8-1.7-8.06-3.06-3.27-1.36-5.85-2.79-7.76-4.29-1.91-1.5-4.02-3.4-6.33-5.72-2.32-2.31-4.05-4.86-5.21-7.66-1.16-2.79-2.18-5.99-3.06-9.59-.89-3.6-1.33-7.58-1.33-11.94Z"/>
          <path class="cls-2" d="M1086.2,83.53c3.27,0,5.54.65,6.84,1.94,1.29,1.29,1.94,3.51,1.94,6.63v18.37c0,3.27-.65,5.55-1.94,6.84s-3.57,1.94-6.84,1.94h-53.89v18.17h43.07c3.27,0,5.54.65,6.84,1.94,1.29,1.29,1.94,3.5,1.94,6.63v18.37c0,3.27-.65,5.55-1.94,6.84s-3.57,1.94-6.84,1.94h-43.07v19.6h55.73c3.13,0,5.34.61,6.63,1.84,1.29,1.23,1.94,3.47,1.94,6.74v18.58c0,3.13-.65,5.34-1.94,6.63s-3.51,1.94-6.63,1.94h-87.37c-3.27,0-5.55-.64-6.84-1.94-1.29-1.29-1.94-3.5-1.94-6.63v-127.79c0-3.13.64-5.34,1.94-6.63s3.57-1.94,6.84-1.94h85.53Z"/>
          <path class="cls-2" d="M1170.51,83.53c19.87,0,35.28,5.07,46.24,15.21,10.95,10.14,16.43,24.12,16.43,41.95v30.62c0,17.69-5.48,31.64-16.43,41.85-10.96,10.21-26.37,15.31-46.24,15.31h-49.81c-3.27,0-5.55-.64-6.84-1.94-1.29-1.29-1.94-3.5-1.94-6.63v-127.79c0-3.13.64-5.34,1.94-6.63s3.57-1.94,6.84-1.94h49.81ZM1192.76,141.3c0-14.7-7.89-22.05-23.68-22.05h-16.74v73.49h16.74c15.79,0,23.68-7.35,23.68-22.05v-29.4Z"/>
          <path class="cls-2" d="M1317.08,83.53c15.65,0,28.03,4.29,37.15,12.86,9.12,8.57,13.68,20.69,13.68,36.34,0,19.87-7.35,33.89-22.05,42.05,2.18,2.72,4.01,5.65,5.51,8.78l18.37,34.91c1.5,2.72,1.8,5.07.92,7.04-.89,1.97-2.96,2.96-6.23,2.96h-22.05c-5.31,0-9.36-.71-12.15-2.14-2.79-1.43-5-3.98-6.63-7.66l-13.06-27.97c-1.91-3.67-3.95-6.33-6.12-7.96-2.18-1.63-5.24-2.45-9.19-2.45h-4.69v39.6c0,3.13-.61,5.34-1.84,6.63-1.22,1.29-3.47,1.94-6.74,1.94h-23.07c-3.27,0-5.55-.64-6.84-1.94-1.29-1.29-1.94-3.5-1.94-6.63v-127.79c0-3.13.64-5.34,1.94-6.63s3.57-1.94,6.84-1.94h58.18ZM1326.06,132.52c0-4.08-1.16-7.31-3.47-9.7-2.32-2.38-5.65-3.57-10-3.57h-22.05v26.95h22.05c4.22,0,7.52-1.23,9.9-3.67,2.38-2.45,3.57-5.78,3.57-10Z"/>
          <path class="cls-2" d="M1479.36,83.53c3.27,0,5.54.65,6.84,1.94,1.29,1.29,1.94,3.51,1.94,6.63v18.37c0,3.27-.65,5.55-1.94,6.84s-3.57,1.94-6.84,1.94h-53.89v18.17h43.07c3.27,0,5.54.65,6.84,1.94,1.29,1.29,1.94,3.5,1.94,6.63v18.37c0,3.27-.65,5.55-1.94,6.84s-3.57,1.94-6.84,1.94h-43.07v19.6h55.73c3.13,0,5.34.61,6.63,1.84,1.29,1.23,1.94,3.47,1.94,6.74v18.58c0,3.13-.65,5.34-1.94,6.63s-3.51,1.94-6.63,1.94h-87.37c-3.27,0-5.55-.64-6.84-1.94-1.29-1.29-1.94-3.5-1.94-6.63v-127.79c0-3.13.64-5.34,1.94-6.63s3.57-1.94,6.84-1.94h85.53Z"/>
          <path class="cls-2" d="M1500.59,126.19c0-13.74,5.34-24.8,16.02-33.17,10.68-8.37,25.55-12.55,44.6-12.55,14.97,0,27.01,2.32,36.13,6.94,9.12,4.63,16.06,11.84,20.82,21.64,2.58,5.31.95,9.12-4.9,11.43l-20.41,8.78c-2.72,1.22-4.83,1.57-6.33,1.02-1.5-.54-3.06-2.31-4.7-5.31-3.54-7.07-10.41-10.62-20.62-10.62-12.93,0-19.39,3.54-19.39,10.62,0,3.95,2.18,6.74,6.53,8.37,4.35,1.63,11.09,3,20.21,4.08,5.99.82,10.95,1.63,14.9,2.45,3.95.82,8.68,2.35,14.19,4.59,5.51,2.25,9.9,4.93,13.17,8.06,3.27,3.13,6.09,7.49,8.47,13.06,2.38,5.58,3.57,12.04,3.57,19.39,0,14.56-5.89,25.96-17.66,34.19-11.77,8.24-26.98,12.35-45.62,12.35-31.84,0-51.65-10.54-59.4-31.64-1.09-3.13-1.19-5.51-.31-7.14.88-1.63,2.82-2.99,5.82-4.08l19.19-6.94c2.99-1.09,5.37-1.33,7.14-.71,1.77.61,3.4,2.35,4.9,5.21,3.67,7.21,11.36,10.82,23.07,10.82,14.56,0,21.84-3.88,21.84-11.64,0-3.67-1.97-6.33-5.92-7.96-3.95-1.63-9.94-2.99-17.96-4.08-3.81-.54-6.6-.95-8.37-1.22-1.77-.27-4.56-.78-8.37-1.53-3.81-.75-6.77-1.46-8.88-2.14-2.11-.68-4.8-1.7-8.06-3.06-3.27-1.36-5.85-2.79-7.76-4.29-1.91-1.5-4.02-3.4-6.33-5.72-2.32-2.31-4.05-4.86-5.21-7.66-1.16-2.79-2.18-5.99-3.06-9.59-.89-3.6-1.33-7.58-1.33-11.94Z"/>
        </g>
      </g>
    </g>
  </g>
</svg>